<svg width="365.56748046875px" height="162.79999999999998px" xmlns="http://www.w3.org/2000/svg" viewBox="67.21625976562501 -6.3999999999999915 365.56748046875 162.79999999999998" style="background: rgb(255, 255, 255);" preserveAspectRatio="xMidYMid"><defs><filter id="editing-cake" x="-100%" y="-100%" width="300%" height="300%"><feFlood flood-color="rgba(92.0952380952381%,9.001006289308178%,9.001006289308178%,0.958)" result="flood-shadow"></feFlood><feFlood flood-color="#170501"></feFlood><feComposite operator="in" in2="SourceAlpha"></feComposite><feConvolveMatrix order="7,10" divisor="1" result="conv" kernelMatrix="0 0 0 1 0 0 0 0 0 1 0 1 0 0 0 0 1 0 1 0 0 0 1 0 0 0 1 0 0 1 0 0 0 1 0 0 1 0 0 0 1 0 1 0 0 0 0 0 1 1 0 0 0 0 0 1 0 1 1 0 1 1 0 0 0 0 1 0 0 0 "></feConvolveMatrix><feGaussianBlur stdDeviation="0.5"></feGaussianBlur><feOffset dy="4" result="offset"></feOffset><feComposite operator="in" in="flood-shadow" in2="offset"></feComposite><feGaussianBlur stdDeviation="4"></feGaussianBlur><feComponentTransfer><feFuncA type="linear" slope="0.7" intercept="-0.2"></feFuncA></feComponentTransfer><feOffset dy="4" result="shadow"></feOffset><feGaussianBlur in="SourceGraphic" stdDeviation="0.5"></feGaussianBlur><feOffset dy="0" result="x0"></feOffset><feGaussianBlur in="SourceGraphic" stdDeviation="1"></feGaussianBlur><feComponentTransfer><feFuncA type="linear" slope="0.8" intercept="-.01"></feFuncA></feComponentTransfer><feOffset dy="1" result="x1"></feOffset><feGaussianBlur in="SourceGraphic" stdDeviation="2"></feGaussianBlur><feComponentTransfer><feFuncA type="linear" slope="0.7" intercept="-.01"></feFuncA></feComponentTransfer><feOffset dy="2" result="x2"></feOffset><feGaussianBlur in="SourceGraphic" stdDeviation="3"></feGaussianBlur><feComponentTransfer><feFuncA type="linear" slope="0.6" intercept="-.01"></feFuncA></feComponentTransfer><feOffset dy="3" result="x3"></feOffset><feMerge><feMergeNode in="shadow"></feMergeNode><feMergeNode in="offset"></feMergeNode><feMergeNode in="x3"></feMergeNode><feMergeNode in="x2"></feMergeNode><feMergeNode in="x1"></feMergeNode><feMergeNode in="x0"></feMergeNode></feMerge></filter></defs><g filter="url(#editing-cake)"><g transform="translate(124.80999785661697, 116.4000015258789)"><path d="M36.63-41.58L36.63-41.58L36.63-41.58Q37.98-44.28 37.98-46.80L37.98-46.80L37.98-46.80Q37.98-49.32 37.71-50.71L37.71-50.71L37.71-50.71Q37.44-52.11 36.81-53.19L36.81-53.19L36.81-53.19Q35.46-55.53 32.76-55.53L32.76-55.53L32.76-55.53Q29.43-55.53 26.73-53.10L26.73-53.10L26.73-53.10Q23.85-50.58 23.85-46.62L23.85-46.62L23.85-46.62Q23.85-44.10 25.61-42.16L25.61-42.16L25.61-42.16Q27.36-40.23 30.06-38.43L30.06-38.43L30.06-38.43Q32.76-36.63 35.82-34.83L35.82-34.83L35.82-34.83Q38.88-33.03 41.58-30.87L41.58-30.87L41.58-30.87Q47.79-25.92 47.79-19.26L47.79-19.26L47.79-19.26Q47.79-14.76 45.41-10.93L45.41-10.93L45.41-10.93Q43.02-7.11 39.06-4.32L39.06-4.32L39.06-4.32Q30.42 1.80 18.99 1.80L18.99 1.80L18.99 1.80Q9.72 1.80 4.95-1.21L4.95-1.21L4.95-1.21Q0.18-4.23 0.18-8.82L0.18-8.82L0.18-8.82Q0.18-17.01 6.57-19.08L6.57-19.08L6.57-19.08Q8.37-19.71 11.12-19.71L11.12-19.71L11.12-19.71Q13.86-19.71 17.01-18.54L17.01-18.54L17.01-18.54Q15.57-14.85 15.57-11.52L15.57-11.52L15.57-11.52Q15.57-4.32 20.70-4.32L20.70-4.32L20.70-4.32Q24.03-4.32 26.77-6.75L26.77-6.75L26.77-6.75Q29.52-9.18 29.52-11.92L29.52-11.92L29.52-11.92Q29.52-14.67 27.77-16.65L27.77-16.65L27.77-16.65Q26.01-18.63 23.40-20.20L23.40-20.20L23.40-20.20Q20.79-21.78 17.77-23.31L17.77-23.31L17.77-23.31Q14.76-24.84 12.15-27L12.15-27L12.15-27Q6.03-31.95 6.03-39.87L6.03-39.87L6.03-39.87Q6.03-45 8.55-49.00L8.55-49.00L8.55-49.00Q11.07-53.01 15.12-55.71L15.12-55.71L15.12-55.71Q23.22-61.20 33.16-61.20L33.16-61.20L33.16-61.20Q43.11-61.20 47.92-58.23L47.92-58.23L47.92-58.23Q52.74-55.26 52.74-50.22L52.74-50.22L52.74-50.22Q52.74-45.81 49.32-43.02L49.32-43.02L49.32-43.02Q46.35-40.68 42.75-40.68L42.75-40.68L42.75-40.68Q39.15-40.68 36.63-41.58ZM99.90-9.99L99.90-9.99L99.90-9.99Q99.90-6.03 103.95-4.86L103.95-4.86L103.95-4.86Q102.96-1.53 99.09 0.27L99.09 0.27L99.09 0.27Q95.85 1.80 92.30 1.80L92.30 1.80L92.30 1.80Q88.74 1.80 86.90 0.85L86.90 0.85L86.90 0.85Q85.05-0.09 84.06-1.62L84.06-1.62L84.06-1.62Q82.44-3.96 82.44-8.37L82.44-8.37L82.44-8.37Q82.44-10.98 83.88-18.18L83.88-18.18L85.14-25.02L85.14-25.02Q86.67-32.85 86.67-35.73L86.67-35.73L86.67-35.73Q86.67-40.77 83.88-40.77L83.88-40.77L83.88-40.77Q80.37-40.77 78.12-35.64L78.12-35.64L78.12-35.64Q77.22-33.66 76.59-30.69L76.59-30.69L70.47 0L52.38 1.80L65.07-63L83.16-64.80L82.44-61.20L82.44-61.20Q79.92-47.34 77.76-42.66L77.76-42.66L77.76-42.66Q82.80-47.70 92.07-47.70L92.07-47.70L92.07-47.70Q101.88-47.70 103.68-41.22L103.68-41.22L103.68-41.22Q104.31-39.15 104.31-37.35L104.31-37.35L104.31-37.35Q104.31-35.55 104.17-34.16L104.17-34.16L104.17-34.16Q104.04-32.76 103.59-30.24L103.59-30.24L102.42-23.76L100.35-13.59L100.35-13.59Q99.90-11.52 99.90-9.99ZM156.51-9.99L156.51-9.99L156.51-9.99Q156.51-6.03 160.56-4.86L160.56-4.86L160.56-4.86Q159.57-1.53 155.70 0.27L155.70 0.27L155.70 0.27Q152.46 1.80 148.91 1.80L148.91 1.80L148.91 1.80Q145.35 1.80 143.50 0.85L143.50 0.85L143.50 0.85Q141.66-0.09 140.67-1.62L140.67-1.62L140.67-1.62Q139.05-3.96 139.05-8.37L139.05-8.37L139.05-8.37Q139.05-10.98 140.49-18.18L140.49-18.18L141.75-25.02L141.75-25.02Q143.28-32.85 143.28-35.73L143.28-35.73L143.28-35.73Q143.28-40.77 140.49-40.77L140.49-40.77L140.49-40.77Q136.98-40.77 134.73-35.64L134.73-35.64L134.73-35.64Q133.83-33.66 133.20-30.69L133.20-30.69L127.08 0L108.99 1.80L121.68-63L139.77-64.80L139.05-61.20L139.05-61.20Q136.53-47.34 134.37-42.66L134.37-42.66L134.37-42.66Q139.41-47.70 148.68-47.70L148.68-47.70L148.68-47.70Q158.49-47.70 160.29-41.22L160.29-41.22L160.29-41.22Q160.92-39.15 160.92-37.35L160.92-37.35L160.92-37.35Q160.92-35.55 160.78-34.16L160.78-34.16L160.78-34.16Q160.65-32.76 160.20-30.24L160.20-30.24L159.03-23.76L156.96-13.59L156.96-13.59Q156.51-11.52 156.51-9.99ZM169.29-9L169.29-9L169.29-9Q169.29-11.43 170.55-17.55L170.55-17.55L175.32-41.85L170.01-41.85L170.37-44.55L170.37-44.55Q181.17-47.79 191.61-55.71L191.61-55.71L195.93-55.71L193.77-45.90L200.79-45.90L199.98-41.85L193.05-41.85L188.46-17.55L188.46-17.55Q187.29-11.97 187.29-10.08L187.29-10.08L187.29-10.08Q187.29-5.76 191.07-4.86L191.07-4.86L191.07-4.86Q190.17-1.80 186.93 0L186.93 0L186.93 0Q183.69 1.80 179.10 1.80L179.10 1.80L179.10 1.80Q174.51 1.80 171.90-1.08L171.90-1.08L171.90-1.08Q169.29-3.96 169.29-9ZM242.28-6.17L242.28-6.17L242.28-6.17Q238.50-2.34 233.32-0.27L233.32-0.27L233.32-0.27Q228.15 1.80 223.02 1.80L223.02 1.80L223.02 1.80Q217.89 1.80 216.09 0.90L216.09 0.90L213.30 16.20L195.03 18L207.45-45.90L222.12-47.43L220.95-41.22L220.95-41.22Q224.73-47.61 232.56-47.61L232.56-47.61L232.56-47.61Q241.38-47.61 246.06-41.94L246.06-41.94L246.06-41.94Q250.20-36.81 250.20-28.98L250.20-28.98L250.20-28.98Q250.20-21.15 248.13-15.57L248.13-15.57L248.13-15.57Q246.06-9.99 242.28-6.17ZM221.94-31.41L217.17-5.04L217.17-5.04Q219.06-3.42 221.40-3.42L221.40-3.42L221.40-3.42Q223.74-3.42 225.09-4.32L225.09-4.32L225.09-4.32Q226.44-5.22 227.43-7.02L227.43-7.02L227.43-7.02Q230.13-11.88 232.29-26.64L232.29-26.64L232.29-26.64Q232.92-30.96 232.92-35.19L232.92-35.19L232.92-35.19Q232.92-39.42 231.97-40.77L231.97-40.77L231.97-40.77Q231.03-42.12 229.23-42.12L229.23-42.12L229.23-42.12Q223.74-42.12 221.94-31.41L221.94-31.41Z" fill="#ff5300"></path></g></g><style>text {
  font-size: 64px;
  font-family: Arial Black;
  dominant-baseline: central;
  text-anchor: middle;
}</style></svg>